<svg width="173" height="98" viewBox="0 0 173 98" fill="none" xmlns="http://www.w3.org/2000/svg"><g clip-path="url(#clip0)"><path d="M119.467 38.857c-4.555 0-7.466 1.716-10.187 6.037-1.962-4.703-5.569-5.974-8.986-5.974-2.594 0-6.137.827-8.099 4.385l-.443-2.542c-.126-.635-.633-1.08-1.329-1.08h-5.378c-.76 0-1.33.572-1.33 1.335v29.55c0 .762.57 1.334 1.33 1.334h6.327c.76 0 1.33-.572 1.33-1.335V54.68c0-3.622 1.834-7.117 5.378-7.117 3.67 0 5.378 2.796 5.378 7.054v15.95c0 .763.57 1.335 1.329 1.335h6.201c.76 0 1.329-.572 1.329-1.335v-15.95c0-3.622 1.645-6.863 5.189-6.863 3.607 0 5.189 2.669 5.189 6.736v16.077c0 .763.569 1.335 1.328 1.335h6.391c.76 0 1.329-.572 1.329-1.335V54.236c-.063-11.947-5.885-15.38-12.276-15.38zm-57.012-.191c-3.797 0-7.404 1.208-10.188 4.64V25.511c0-.763-.57-1.335-1.329-1.335h-6.77c-.76 0-1.33.572-1.33 1.335v44.992c0 .762.57 1.334 1.33 1.334h5.947c.697 0 1.203-.508 1.33-1.143l.442-2.987c3.038 3.876 6.708 4.83 10.757 4.83 9.492 0 16.01-6.8 16.01-16.904-.064-10.55-6.645-16.968-16.2-16.968zm-.95 25.292c-4.619 0-8.352-3.749-8.352-8.388 0-4.639 3.733-8.388 8.352-8.388 4.62 0 8.353 3.749 8.353 8.388-.063 4.639-3.797 8.388-8.353 8.388zm51.825-40.353c-1.392 0-2.342.636-2.848 1.335v-3.686c0-.127-.126-.254-.253-.254h-1.519c-.126 0-.253.127-.253.254v11.249c0 .126.127.253.253.253h1.392a.273.273 0 00.254-.254v-1.207c.569.89 1.645 1.461 2.974 1.461 2.594 0 4.113-2.097 4.113-4.575s-1.519-4.576-4.113-4.576zm-.443 7.372c-1.519 0-2.468-1.207-2.468-2.796 0-1.589.949-2.796 2.468-2.796 1.518 0 2.467 1.207 2.467 2.796.064 1.589-.885 2.796-2.467 2.796zm21.957-7.372c-1.456 0-2.341.7-2.721 1.335v-.826c0-.127-.127-.254-.253-.254h-1.392c-.127 0-.253.127-.253.254v8.452c0 .127.126.254.253.254h1.518c.127 0 .253-.127.253-.254v-5.021c0-1.398.823-2.16 2.089-2.16.949 0 1.708.826 1.708 1.78v5.401c0 .127.127.254.253.254h1.519c.126 0 .253-.127.253-.254V27.1c.063-2.034-1.076-3.495-3.227-3.495zm9.491 1.78c1.013 0 1.772.572 2.089 1.398v.063c0 .128.126.191.253.191h1.518c.127 0 .253-.127.253-.254 0 0 0-.509-.379-1.144v-.063l-.064-.064c0-.064-.063-.064-.063-.127a3.827 3.827 0 00-1.202-1.144 4.42 4.42 0 00-2.341-.636c-2.595 0-4.43 2.034-4.43 4.576s1.835 4.575 4.43 4.575c.949 0 1.771-.254 2.341-.635 0 0 .696-.381 1.202-1.144 0 0 0-.064.063-.064l.064-.063v-.064c.379-.635.379-1.144.379-1.144 0-.127-.126-.254-.253-.254h-1.518c-.127 0-.19.064-.253.191v.063c-.317.827-1.076 1.399-2.089 1.399-1.455 0-2.341-1.144-2.341-2.797-.063-1.652.886-2.86 2.341-2.86zm10.062-1.78c-2.785 0-4.556 2.098-4.556 4.576 0 2.478 1.771 4.575 4.556 4.575 2.847 0 4.619-2.097 4.619-4.575s-1.835-4.576-4.619-4.576zm0 7.372c-1.456 0-2.532-1.08-2.532-2.796 0-1.716 1.076-2.796 2.532-2.796 1.455 0 2.594 1.08 2.594 2.796-.063 1.716-1.139 2.796-2.594 2.796zm-26.893-7.117h-1.392c-.127 0-.253.127-.253.254v1.017c-.57-.89-1.582-1.462-2.974-1.462-2.595 0-4.114 2.097-4.114 4.575 0 2.479 1.456 4.576 4.114 4.576 1.392 0 2.404-.508 2.974-1.462v1.207c0 .128.126.255.253.255h1.392c.126 0 .253-.127.253-.254v-8.452c0-.19-.063-.254-.253-.254zm-4.177 7.117c-1.518 0-2.467-1.207-2.467-2.796 0-1.589.949-2.796 2.467-2.796 1.519 0 2.468 1.207 2.468 2.796.064 1.589-.886 2.796-2.468 2.796z" fill="#FF6300"/><path d="M15.946 41.971c0-1.589 1.455-2.86 3.037-2.605 8.48 1.27 14.997 8.642 14.997 17.475 0 13.854-11.074 16.904-15.883 17.54-1.139.127-2.151-.763-2.151-1.907V41.971z" fill="#462A71"/><path d="M1.962 57.922h7.91c3.353 0 6.074-2.733 6.074-6.1V24.494c0-1.08-.886-1.97-1.962-1.97h-3.67C4.62 22.525 0 27.165 0 32.884v23.068c0 1.08.886 1.97 1.962 1.97zM165.28 67.58c4.809-2.477 6.961-6.926 7.15-11.692 0-4.003-1.012-7.244-2.784-9.85l3.038-3.495c.506-.572.379-1.462-.19-1.97l-4.873-3.75c-.632-.444-1.455-.317-1.898.255l-2.594 3.431a20.224 20.224 0 00-8.29-1.779c-9.238 0-17.907 5.656-17.907 17.031 0 10.358 7.087 16.84 17.971 16.84 6.011 0 8.036 2.479 8.036 5.72 0 4.13-3.923 6.164-8.226 6.164-4.113 0-7.467-1.398-8.226-5.656-.127-.635-.696-1.144-1.329-1.144h-6.391c-.759 0-1.392.636-1.392 1.462.443 8.706 6.391 13.853 17.338 13.853 9.112 0 18.034-4.766 18.034-14.743-.063-1.906-.063-7.372-7.467-10.676zm-10.63-3.685c-4.62 0-8.29-3.75-8.29-8.325 0-4.639 3.734-8.325 8.29-8.325 4.555 0 8.289 3.75 8.289 8.325.063 4.576-3.67 8.325-8.289 8.325z" fill="#FF6300"/></g><defs><clipPath id="clip0"><path fill="#fff" transform="translate(0 21)" d="M0 0h173v72H0z"/></clipPath></defs></svg>