<!-- <svg xmlns="http://www.w3.org/2000/svg" width="164" height="33" viewBox="0 0 164 33">
    <path fill="#FFF" fill-rule="evenodd" d="M69.345 21.391c-2.766 0-4.933-2.254-4.933-5.132 0-2.821 2.167-5.032 4.933-5.032 2.44 0 5.033 1.799 5.033 5.132 0 2.869-2.164 5.032-5.033 5.032zm5.033-14.118v1.712c-1.397-1.089-3.227-1.712-5.199-1.712-5.028 0-8.82 3.878-8.82 9.019 0 5.078 3.874 9.053 8.82 9.053 1.831 0 3.538-.537 4.89-1.484l.004.221c-.002 2.838-1.93 4.368-4.669 4.367-1.96-.001-3.769-.597-5.41-1.685l-1.574 3.62c1.843 1.311 4.582 1.991 7.17 1.992 5.344.002 8.758-3.119 8.841-8.293V7.273h-4.053zm12.01-4.669a2.455 2.455 0 1 1-4.91 0 2.455 2.455 0 0 1 4.91 0zM81.8 25.345h4.054V7.273H81.8v18.072zm-32.836-3.954c-2.766 0-4.932-2.254-4.932-5.132 0-2.821 2.166-5.032 4.932-5.032 2.44 0 5.032 1.799 5.032 5.132 0 2.869-2.163 5.032-5.032 5.032zm5.032-12.406C52.6 7.896 50.77 7.273 48.8 7.273c-5.03 0-8.822 3.878-8.822 9.019 0 5.078 3.875 9.053 8.822 9.053 1.974 0 3.803-.627 5.197-1.723v1.723h4.055V7.273h-4.055v1.712zm101.46 7.606l8.427-7.907h-2.528l-7.45 7.041h-2.486V0h-1.884v25.352h1.884v-7.847h2.461l7.638 7.847H164l-8.545-8.761zm-17.634-8.096c-2.31 0-4.308.903-5.636 2.511V8.684h-1.867v16.668h1.884v-9.593c0-3.157 2.32-5.448 5.517-5.448 3.464 0 5.533 1.991 5.533 5.328v9.713h1.866v-9.713c0-4.406-2.796-7.144-7.297-7.144zM117.41 23.726c-3.73 0-6.543-2.881-6.543-6.7 0-3.828 2.812-6.715 6.543-6.715 3.731 0 6.545 2.887 6.545 6.715 0 3.819-2.814 6.7-6.545 6.7zm6.476-12.093c-1.516-1.983-3.862-3.138-6.476-3.138-4.815 0-8.445 3.667-8.445 8.531 0 4.854 3.63 8.514 8.445 8.514 2.611 0 4.958-1.15 6.476-3.128v2.94h1.867V8.684h-1.867v2.949zM98.207 23.726c-3.73 0-6.544-2.881-6.544-6.7 0-3.828 2.813-6.715 6.544-6.715 3.73 0 6.544 2.887 6.544 6.715 0 3.819-2.814 6.7-6.544 6.7zm0-15.231c-2.603 0-4.943 1.15-6.458 3.126V0h-1.882v25.352h1.882v-2.927c1.518 1.969 3.858 3.115 6.458 3.115 4.824 0 8.462-3.66 8.462-8.514 0-4.864-3.638-8.531-8.462-8.531zm-74 8.531l-5.817 5.822a4.382 4.382 0 0 1-3.12 1.295c-1.18 0-2.289-.46-3.123-1.295l-5.894-5.899-.077.077-5.345 5.35 5.893 5.9a12.003 12.003 0 0 0 8.545 3.543 12 12 0 0 0 8.544-3.543l5.816-5.823-.006-.004-5.416-5.423zm6.176 4.662V10.844l-5.416 5.422 5.416 5.422zM6.176 15.506l.003.003 5.893-5.899a4.4 4.4 0 0 1 3.124-1.292 4.39 4.39 0 0 1 3.121 1.292l5.89 5.896 5.416-5.423.006-.005-5.89-5.896A12.034 12.034 0 0 0 15.526.65 12.05 12.05 0 0 0 6.65 4.182L.757 10.081l.002.002 5.417 5.423zM0 10.844v10.844l5.416-5.422L0 10.844z"/>
</svg> -->
<!-- Logo antigo -->

<svg width="829" height="240" viewBox="0 0 829 240" fill="none" xmlns="http://www.w3.org/2000/svg">
<g clip-path="url(#clip0_231_869)">
<path d="M262.643 51.4862L262.613 69.8604C251.952 55.1817 236.605 48.6924 216.688 48.6924C198.693 48.6924 184.602 55.1078 171.857 68.3822C159.111 81.6714 152.931 97.3257 152.931 116.749C152.931 136.173 159.614 151.99 172.36 165.368C185.105 178.746 198.693 184.939 216.688 184.939C232.834 184.939 252.692 179.086 262.628 166.817C263.042 187.792 254.643 201.51 237.758 207.778C218.181 215.065 193.356 208.369 182.192 193.173L161.507 213.868C175.509 230.38 197.851 239.87 220.591 239.87C259.863 239.87 291.667 219.604 291.667 161.51V51.4862H262.613H262.643ZM251.405 146.787C243.554 154.754 233.692 158.731 221.819 158.731C209.945 158.731 200.083 154.754 192.232 146.787C184.381 138.834 180.448 128.826 180.448 116.764C180.448 104.702 184.381 94.6944 192.232 86.7269C200.083 78.7741 209.945 74.7977 221.819 74.7977C233.692 74.7977 243.554 78.7741 251.405 86.7269C259.257 94.6796 263.19 104.687 263.19 116.764C263.19 128.841 259.257 138.834 251.405 146.787Z" fill="white"/>
<path d="M109.712 51.4862V70.1117C99.184 55.7287 84.1172 48.5298 64.5258 48.5298C46.7236 48.5298 31.5236 55.1078 18.926 68.2492C6.29881 81.4053 0 97.5622 0 116.764C0 135.966 6.29881 151.901 18.9112 165.131C31.5236 178.361 46.7236 184.969 64.511 184.969C80.2433 184.969 99.6572 179.307 109.697 166.831V182.131H138.751V51.4862H109.697H109.712ZM98.4595 146.787C90.5934 154.74 80.7312 158.716 68.8433 158.716C56.9554 158.716 47.0932 154.74 39.2271 146.787C31.361 138.834 27.4279 128.812 27.4279 116.749C27.4279 104.687 31.361 94.6797 39.2271 86.7121C47.0932 78.7593 56.9554 74.7829 68.8433 74.7829C80.7312 74.7829 90.5934 78.7593 98.4595 86.7121C106.326 94.6649 110.259 104.672 110.259 116.749C110.259 128.826 106.326 138.819 98.4595 146.787Z" fill="white"/>
<path d="M322.762 37.6649C333.157 37.6649 341.585 29.2391 341.585 18.8325C341.585 8.42583 333.157 0 322.762 0C312.368 0 303.954 8.42583 303.954 18.8325C303.954 29.2391 312.382 37.6649 322.762 37.6649Z" fill="#00CD5C"/>
<path d="M337.282 51.2498H308.228V181.88H337.282V51.2498Z" fill="white"/>
<path d="M372.783 157.755H372.546V183.52H360.245V9.54932H372.783V94.6502H373.02C382.009 77.6359 398.555 67.7023 417.939 67.7023C451.282 67.7023 474.451 93.7041 474.451 127.038C474.451 160.372 449.625 184.718 417.939 184.718C396.899 184.718 381.048 174.075 372.783 157.77V157.755ZM461.454 127.26C461.454 98.1831 441.36 79.2767 416.298 79.2767C391.236 79.2767 372.561 100.548 372.561 127.26C372.561 153.971 392.182 172.877 416.535 172.877C443.489 172.877 461.454 152.788 461.454 127.26Z" fill="white"/>
<path d="M481.534 127.023C481.534 93.6893 504.94 67.6875 538.045 67.6875C557.43 67.6875 574.227 77.8576 582.728 94.8719H582.965V68.8701H595.504V183.52H583.438V157.755L582.965 157.519C574.685 173.823 558.849 184.703 538.045 184.703C506.596 184.703 481.534 161.776 481.534 127.023ZM583.438 127.26C583.438 100.548 565.473 79.2767 539.701 79.2767C513.93 79.2767 494.545 98.1831 494.545 127.26C494.545 152.788 512.51 172.877 539.465 172.877C563.581 172.877 583.438 154.68 583.438 127.26Z" fill="white"/>
<path d="M616.781 68.8701H629.319V94.1623H629.792C638.309 77.3846 654.618 67.6875 674.239 67.6875C698.828 67.6875 714.663 83.5192 714.663 114.961V183.506H702.125V118.967C702.125 89.6538 688.877 79.2471 671.148 79.2471C646.086 79.2471 629.304 97.6805 629.304 126.52V183.491H616.766V68.8701H616.781Z" fill="white"/>
<path d="M735.009 9.54932H747.547V140.504L748.02 140.741L813.286 68.8849H828.885L784.675 117.341L828.648 183.535H814.232L775.685 126.328L747.547 156.824V183.535H735.009V9.54932Z" fill="white"/>
</g>
<defs>
<clipPath id="clip0_231_869">
<rect width="828.87" height="239.885" fill="white"/>
</clipPath>
</defs>
</svg>
